<svg xmlns="http://www.w3.org/2000/svg" viewBox="0 0 72 76" width="72" height="76"><g><path d="M25 40 C11 44 6 58 10 70 C20 66 27 56 29 44 Z" fill="#F1EDE3" stroke="#0E1536" stroke-width="2" stroke-linejoin="round"/><path d="M14 58 l6 -2 M12 64 l7 -3" stroke="#0E1536" stroke-width="2" stroke-linecap="round"/></g>
  <g><path d="M47 40 C61 44 66 58 62 70 C52 66 45 56 43 44 Z" fill="#F1EDE3" stroke="#0E1536" stroke-width="2" stroke-linejoin="round"/><path d="M58 58 l-6 -2 M60 64 l-7 -3" stroke="#0E1536" stroke-width="2" stroke-linecap="round"/></g>
  <ellipse cx="36" cy="48" rx="17" ry="22" fill="#F1EDE3" stroke="#0E1536" stroke-width="2"/>
  <path d="M27 48 l4 4 l4 -4 M37 48 l4 4 l4 -4 M29 57 l4 4 l4 -4 M39 57 l4 4 l4 -4" fill="none" stroke="#0E1536" stroke-width="2" stroke-linecap="round" stroke-linejoin="round"/>
  <circle cx="36" cy="27" r="19" fill="#F1EDE3" stroke="#0E1536" stroke-width="2"/>
  <polygon points="19,17 21,4 30,12" fill="#F1EDE3" stroke="#0E1536" stroke-width="2" stroke-linejoin="round"/>
  <polygon points="53,17 51,4 42,12" fill="#F1EDE3" stroke="#0E1536" stroke-width="2" stroke-linejoin="round"/>
  <circle cx="28" cy="27" r="7.5" fill="#FFD400"/><circle cx="44" cy="27" r="7.5" fill="#FFD400"/>
  <circle cx="29" cy="28" r="3.4" fill="#0A0A0B"/><circle cx="45" cy="28" r="3.4" fill="#0A0A0B"/>
  <circle cx="30.4" cy="26.4" r="1.1" fill="#fff"/><circle cx="46.4" cy="26.4" r="1.1" fill="#fff"/>
  <polygon points="36,32 32.5,36.5 39.5,36.5" fill="#FF2E2E"/>
  <path d="M29 69 l-3 4 M29 69 l0 5 M29 69 l3 4 M43 69 l-3 4 M43 69 l0 5 M43 69 l3 4" stroke="#FFD400" stroke-width="2" stroke-linecap="round" fill="none"/></svg>
